<svg width="128" height="128" viewBox="0 0 128 128" xmlns="http://www.w3.org/2000/svg">
  <defs>
    <linearGradient id="bg" x1="15%" y1="10%" x2="85%" y2="90%">
      <stop stop-color="#0c0a11" offset="0%"/>
      <stop stop-color="#111827" offset="45%"/>
      <stop stop-color="#1f2937" offset="100%"/>
    </linearGradient>
    <linearGradient id="ray" x1="0%" y1="0%" x2="100%" y2="100%">
      <stop stop-color="#fcd34d" offset="0%"/>
      <stop stop-color="#f97316" offset="100%"/>
    </linearGradient>
  </defs>
  <rect width="128" height="128" rx="28" fill="url(#bg)"/>
  <circle cx="64" cy="64" r="36" fill="none" stroke="#fbbf24" stroke-width="6" opacity="0.6"/>
  <circle cx="64" cy="64" r="18" fill="rgba(251,191,36,0.1)" stroke="#fde68a" stroke-width="2"/>
  <path d="M64 30l7.2 15.6 17.1 1.7-13.1 11 3.7 16.7L64 65.4 49.1 75l3.7-16.7-13.1-11 17.1-1.7z" fill="url(#ray)" stroke="#fde68a" stroke-width="2" stroke-linejoin="round"/>
  <path d="M64 14v12M64 102v12M14 64h12M102 64h12M28 28l8.5 8.5M91.5 91.5 100 100M28 100l8.5-8.5M91.5 36.5 100 28" stroke="#f59e0b" stroke-width="4" stroke-linecap="round" opacity="0.9"/>
</svg>
